<?xml version="1.0" standalone="no"?>
<!DOCTYPE svg PUBLIC "-//W3C//DTD SVG 20010904//EN"
 "http://www.w3.org/TR/2001/REC-SVG-20010904/DTD/svg10.dtd">
<svg version="1.0" xmlns="http://www.w3.org/2000/svg"
 width="700.000000pt" height="700.000000pt" viewBox="0 0 700.000000 700.000000"
 preserveAspectRatio="xMidYMid meet">
<metadata>
Created by potrace 1.11, written by Peter Selinger 2001-2013
</metadata>
<g transform="translate(0.000000,700.000000) scale(0.100000,-0.100000)"
fill="#000000" stroke="none">
<path d="M0 3500 l0 -3500 700 0 700 0 0 1400 0 1400 700 0 700 0 0 701 0 701
85 -6 c77 -6 118 -10 180 -21 85 -14 295 -84 320 -106 5 -5 15 -9 22 -9 18 0
161 -86 233 -140 30 -22 85 -70 122 -106 218 -211 345 -439 409 -735 31 -142
33 -398 4 -544 -13 -66 -48 -191 -56 -199 -5 -6 -9 -16 -9 -24 0 -26 -87 -199
-140 -279 -80 -119 -150 -197 -279 -311 -85 -75 -253 -174 -381 -225 -139 -55
-322 -93 -462 -96 l-48 -1 0 -701 0 -701 133 6 c73 4 144 8 157 10 14 3 51 7
84 11 141 16 487 99 561 135 11 5 47 19 80 31 92 33 289 129 400 194 281 165
498 349 735 621 147 168 334 474 424 694 15 36 33 79 40 95 74 167 157 527
173 745 3 41 7 77 9 79 2 2 4 -586 4 -1307 l0 -1312 700 0 700 0 0 1400 0
1400 -700 0 -700 0 -1 48 c-2 149 -20 330 -44 452 -28 143 -42 201 -72 300
-77 257 -203 526 -347 743 -45 67 -89 131 -98 142 -9 11 -47 58 -85 104 -147
181 -380 392 -589 534 -309 209 -673 359 -1037 426 -152 29 -165 30 -257 37
-47 3 -87 8 -89 10 -2 2 586 4 1307 4 l1312 0 0 700 0 700 -2800 0 -2800 0 0
-3500z m2800 1400 l0 -700 -700 0 -700 0 0 700 0 700 700 0 700 0 0 -700z"/>
<path d="M6209 5596 c-2 -2 -20 -6 -39 -9 -263 -39 -502 -276 -555 -550 -18
-90 -12 -252 10 -327 71 -234 241 -405 480 -482 58 -19 91 -22 200 -22 117 0
138 3 209 28 121 43 194 87 274 166 125 124 196 276 208 446 24 336 -186 634
-511 729 -53 15 -265 32 -276 21z"/>
</g>
</svg>
