<svg version="1.1" id="Camada_1" xmlns="http://www.w3.org/2000/svg" x="0" y="0" viewBox="0 0 360 360" xml:space="preserve"><style>.st0{fill:#0a0a0a}</style><path class="st0" d="M113.3 263.5l-.5-.2-110.9-42 33.7-89.4 23.1 8.8-13.4 35.5c11.8-18.6 35.4-27.1 56.8-19.2l8.5-22 45.1 17.1-8.8 23.1-35.4-13.5c7.7 4.9 13.9 12 17.7 20.6 5.3 11.7 5.7 24.7 1.2 36.6l-.2.5-23.1-8.8.2-.5c2.2-5.7 2.1-11.9-.4-17.5-2.5-5.7-7.1-10-13-12.2-5.7-2.2-11.9-2.1-17.5.4-5.5 2.5-9.8 6.9-12.1 12.5l22.2 8.4-8.5 22.1 44.1 16.7-8.8 23zM3.2 220.7l109.5 41.5 8.1-21.1-44.1-16.7 8.4-22.2-21.2-8-8.4 22.2-23.1-8.8 25.1-66.3-21.2-8-33.1 87.4zM108.3 210l21.2 8c4.2-11.5 3.8-24.1-1.3-35.3-5.1-11.4-14.3-20-25.9-24.5l-.2-.1c-24-9.1-50.9 2.9-60.2 26.7l21.3 8c2.4-5.9 6.8-10.5 12.6-13.1 5.8-2.6 12.4-2.8 18.3-.4 6.1 2.3 10.9 6.8 13.6 12.8 2.5 5.7 2.8 12 .6 17.9zm-74.7-3l21.2 8 8-21.2-21.2-8-8 21.2zm69.4-49.7l43.3 16.5 8-21.2-43.2-16.4-8.1 21.1z"/><path class="st0" d="M73.4 146.3c-1.5 0-2.9-.3-4.4-.8-6.4-2.4-9.6-9.6-7.2-15.9 2.3-6.1 9.5-9.4 15.9-7.2 6.4 2.4 9.6 9.6 7.2 15.9-1.8 5-6.5 8-11.5 8zm.2-23.6c-4.7 0-9.1 2.8-10.8 7.2-2.2 5.9.7 12.4 6.6 14.6 5.9 2.2 12.4-.7 14.6-6.6 2.2-5.9-.7-12.4-6.6-14.6-1.2-.4-2.5-.6-3.8-.6zM163.8 130.9l-.5-.2L52.1 88.6l.2-.5L86-.8 109 8 95.5 43.5c11.8-18.6 35.4-27.1 56.8-19.2l8.4-22.2 45.1 17.1-8.8 23.1-35.5-13.4c7.8 5 14 12.1 17.8 20.7 5.3 11.7 5.7 24.7 1.2 36.6l-.2.5-23.1-8.8.2-.5c2.2-5.7 2.1-11.9-.4-17.5-2.5-5.7-7.1-10-13-12.2-5.7-2.2-11.9-2.1-17.5.4-5.5 2.4-9.7 6.8-12 12.4l22.3 8.4-8.4 22.2 44.1 16.7-8.7 23.1zM53.4 88.1l109.8 41.6 8-21.2-44.1-16.7 8.4-22.2-21.3-8.1-8.6 22.1-23.1-8.8 8.7-22.5 16.5-43.7L86.6.5 53.4 88.1zm105.2-10.8l21.2 8c4.2-11.5 3.8-24.1-1.3-35.3-5.1-11.4-14.4-20.1-26.1-24.6-24-9.1-50.9 2.9-60.2 26.7l21.3 8c2.4-5.9 6.8-10.5 12.6-13.1 5.8-2.6 12.3-2.8 18.3-.4 6.1 2.3 10.9 6.8 13.6 12.8 2.5 5.7 2.7 12.1.6 17.9zm-74.8-3.1l21.3 8 8.2-21.1L91.9 53l-8.1 21.2zm69.5-49.5L196.5 41l8-21.2-43.2-16.4-8 21.3z"/><path class="st0" d="M123.6 13.7c-1.5 0-2.9-.3-4.4-.8-3.1-1.2-5.6-3.5-6.9-6.5-1.4-3-1.5-6.4-.3-9.5 2.4-6.4 9.6-9.6 15.9-7.2 6.4 2.4 9.6 9.6 7.2 15.9-1.8 5-6.5 8.1-11.5 8.1zm.1-23.7c-4.6 0-8.9 2.8-10.6 7.3-1.1 2.8-1 5.9.3 8.7 1.2 2.8 3.5 4.9 6.3 6 2.9 1.1 5.9 1 8.7-.3 2.8-1.2 4.9-3.5 6-6.3 1.1-2.8 1-5.9-.3-8.7-1.2-2.8-3.5-4.9-6.3-6-1.4-.5-2.8-.7-4.1-.7zM246 313.9l-111.6-42.3 33.9-89.4 23.1 8.8-13.4 35.5c11.8-18.6 35.4-27.1 56.8-19.2l8.3-22 45.2 16.9-8.8 23.1-35.7-13.5c18.8 12 27.3 35.8 19.2 57.3l-.2.5-23.1-8.8.2-.5c2.2-5.7 2.1-11.9-.4-17.5-2.5-5.7-7.1-10-13-12.2-5.7-2.2-11.9-2.1-17.5.4-5.5 2.5-9.8 6.9-12.1 12.5l22.2 8.4-8.4 22.2 44.1 16.7-8.8 23.1zM135.7 271l109.8 41.6 8-21.2-44.1-16.7 8.4-22.2-21.2-8-8.4 22.2-23.1-8.8 25.1-66.3-21.2-8-33.3 87.4zM241 260.2l21.2 8c8.8-23.9-3.4-50.7-27.4-59.9-24-9.1-50.9 2.9-60.2 26.7l21.3 8c2.4-5.9 6.8-10.5 12.6-13.1 5.8-2.6 12.3-2.8 18.3-.4 6.1 2.3 10.9 6.8 13.6 12.8 2.5 5.8 2.7 12.1.6 17.9zm-74.7-2.9l21.2 8 8-21.2-21.2-8-8 21.2zm69.4-49.7l43.2 16.4 8-21.2-43.3-16.2-7.9 21z"/><path class="st0" d="M206.1 196.7c-1.5 0-2.9-.3-4.4-.8-3.1-1.2-5.6-3.5-6.9-6.5-1.4-3-1.5-6.4-.3-9.5s3.5-5.6 6.5-6.9 6.4-1.5 9.5-.3c6.4 2.4 9.6 9.6 7.2 15.9-1.9 5.1-6.6 8.1-11.6 8.1zm0-23.7c-1.6 0-3.2.3-4.6 1-2.8 1.2-4.9 3.5-6 6.3-1.1 2.8-1 5.9.3 8.7s3.5 4.9 6.3 6c5.9 2.2 12.4-.7 14.6-6.6 2.2-5.9-.7-12.4-6.6-14.6-1.3-.5-2.6-.8-4-.8zM296.3 181.2L184.6 139l.2-.5 33.7-89 23.1 8.8-13.4 35.5C240 75.2 263.6 66.7 285 74.6l8.4-22.2 45.1 17.1-8.8 23.1-35.5-13.4c7.8 4.9 14 12.1 17.8 20.7 5.3 11.7 5.7 24.7 1.2 36.6l-.2.5-23.1-8.8.2-.5c2.2-5.7 2.1-11.9-.4-17.5-2.5-5.7-7.1-10-13-12.2-5.7-2.2-11.9-2.1-17.5.4-5.5 2.5-9.8 6.9-12.1 12.5l22.2 8.4-8.4 22.2 44.1 16.7-8.7 23zm-110.4-42.8L295.7 180l8-21.2-44.1-16.8 8.4-22.2-21.2-8-8.4 22.2-23.1-8.8 25.1-66.3-21.2-8-33.3 87.5zm105.3-10.9l21.2 8c4.2-11.5 3.8-24.1-1.3-35.3-5.1-11.4-14.4-20.1-26.1-24.6-24-9.1-50.9 2.9-60.2 26.7l21.2 8c2.4-5.9 6.8-10.5 12.6-13.1 5.8-2.6 12.4-2.8 18.3-.4 6.1 2.3 10.9 6.8 13.6 12.8 2.7 5.8 2.9 12.1.7 17.9zm-74.7-2.9l21.2 8 8-21.2-21.2-8-8 21.2zm69.4-49.7l43.2 16.4 8-21.2L294 53.7l-8.1 21.2z"/><path class="st0" d="M256.4 63.9c-1.5 0-3-.3-4.4-.8-6.4-2.4-9.6-9.6-7.2-15.9 2.5-6.2 9.6-9.4 15.9-7.2 3.1 1.2 5.6 3.5 6.9 6.5 1.4 3 1.5 6.4.3 9.5s-3.5 5.6-6.5 6.9c-1.6.7-3.3 1-5 1zm-10.7-16.4c-2.2 5.9.7 12.4 6.6 14.6 2.9 1.1 5.9 1 8.7-.3 2.8-1.2 4.9-3.5 6-6.3 1.1-2.8 1-5.9-.3-8.7s-3.5-4.9-6.3-6c-5.8-1.9-12.4 1-14.7 6.7zM213.8-1.7L102.2-43.9l.2-.5 33.7-89 23.1 8.8-13.4 35.5c4.9-7.8 12.1-14 20.7-17.8 11.5-5.2 24.3-5.7 36.1-1.3l8.4-22.2 45.1 17.1-8.8 23.1-35.5-13.4c7.8 4.9 13.9 12 17.8 20.6 5.2 11.6 5.6 24.6 1.1 36.5l-.2.5-23.1-8.8.2-.5c2.2-5.7 2.1-11.9-.4-17.5-2.5-5.7-7.1-10-13-12.2-5.7-2.2-11.9-2.1-17.5.4-5.5 2.5-9.8 6.9-12.1 12.5l22.2 8.4-8.4 22.2 44.2 16.9-8.8 22.9zM103.5-44.5L213.3-3l8-21.2-44.2-16.9 8.4-22.2-21.2-8-8.4 22.2-23.1-8.8 8.8-23.1h.1l16.3-43.1-21.2-8-33.3 87.6zm105.3-11l21.2 8c4.2-11.5 3.8-24-1.3-35.3-5.1-11.4-14.4-20.1-26-24.5-11.7-4.4-24.4-4-35.8 1.1C155.7-101 147-92 142.5-80.6l21.1 8c2.4-5.9 6.8-10.5 12.6-13.1 5.8-2.6 12.3-2.8 18.3-.4 6.1 2.3 10.9 6.8 13.6 12.8 2.6 5.6 2.8 11.9.7 17.8zm-74.8-3l21.2 8 8-21.2-21.2-8-8 21.2zm69.5-49.5l43.2 16.4 8-21.2-43.2-16.4-8 21.2z"/><path class="st0" d="M173.9-119c-1.5 0-3-.3-4.4-.8-6.4-2.4-9.6-9.6-7.2-15.9 2.4-6.4 9.6-9.6 15.9-7.2 6.4 2.4 9.6 9.6 7.2 15.9-1.2 3.1-3.5 5.6-6.5 6.9-1.5.8-3.2 1.1-5 1.1zm-10.6-16.4c-2.2 5.9.7 12.4 6.6 14.6 2.8 1.1 5.9 1 8.7-.3 2.8-1.2 4.9-3.5 6-6.3 2.2-5.9-.7-12.4-6.6-14.6s-12.5.8-14.7 6.6zM346.7 48.5L235 6.2l.2-.5 33.7-89 23.1 8.8L278.5-39c11.8-18.5 35.4-26.9 56.7-19.1l8.4-22.2 45.1 17.1-8.7 23.1-35.5-13.4c18.7 11.9 27.2 35.7 19.2 57.2l-.2.5-23.1-8.8.2-.5c2.2-5.7 2.1-11.9-.4-17.5-2.5-5.7-7.1-10-13-12.2-5.7-2.2-11.9-2.1-17.5.4-5.5 2.5-9.8 6.9-12.1 12.5l22.2 8.4-8.4 22.2 44.1 16.7-8.8 23.1zM236.3 5.7l109.8 41.6 8-21.2L310 9.3l8.4-22.2-21.2-8-8.4 22.2-23.1-8.8 8.5-22.5h-.1c0-.1.1-.1.1-.2l16.6-43.5-21.2-8-33.3 87.4zM341.6-5.2l21.2 8c8.7-24-3.6-50.8-27.5-59.8-24-9.1-50.8 2.9-60.2 26.6l21.4 8.1c2.4-5.9 6.8-10.5 12.6-13.1 5.8-2.6 12.3-2.8 18.3-.4 6.1 2.3 10.9 6.8 13.6 12.8 2.6 5.7 2.8 12 .6 17.8zm-74.7-2.9l21.2 8 8-21.2-21.2-8-8 21.2zm69.3-49.6l43.2 16.4 8-21.2L344.2-79l-8 21.3z"/><path class="st0" d="M306.6-68.7c-1.5 0-3-.3-4.4-.8-6.4-2.4-9.6-9.6-7.2-15.9 1.2-3.1 3.5-5.6 6.5-6.9 3-1.4 6.4-1.5 9.5-.3 3.1 1.2 5.6 3.5 6.9 6.5 1.4 3 1.5 6.4.3 9.5-1.2 3.1-3.5 5.6-6.5 6.9-1.7.6-3.4 1-5.1 1zm-.1-23.8c-1.6 0-3.2.3-4.6 1-2.8 1.2-4.9 3.5-6 6.3-2.2 5.9.7 12.4 6.6 14.6 2.9 1.1 5.9 1 8.7-.3 2.8-1.2 4.9-3.5 6-6.3s1-5.9-.3-8.7c-1.2-2.8-3.5-4.9-6.3-6-1.3-.3-2.7-.6-4.1-.6zM385 366.6l-111.6-42.3 33.9-89.4 23.1 8.8-13.4 35.4c4.9-7.8 12.1-14 20.7-17.8 11.5-5.2 24.3-5.7 36.1-1.3l8.4-22.2 45.1 17.1-8.8 23.1-35.7-13.5c18.8 12 27.3 35.8 19.2 57.3l-.2.5-23.1-8.8.2-.5c2.2-5.7 2.1-11.9-.4-17.5-2.5-5.7-7.1-10-13-12.2-5.7-2.2-11.9-2.1-17.5.4-5.5 2.5-9.8 6.9-12.1 12.5l22.2 8.4-8.4 22.2 44.1 16.7-8.8 23.1zm-110.3-42.9l109.8 41.6 8-21.2-44.1-16.7 8.4-22.2-21.2-8-8.4 22.2-23.1-8.8 25.1-66.3-21.2-8-33.3 87.4zM380 312.9l21.2 8c8.8-23.9-3.4-50.7-27.4-59.9-24-9.1-50.9 2.9-60.2 26.7l21.3 8c2.4-5.9 6.8-10.5 12.6-13.1 5.8-2.6 12.3-2.8 18.3-.4 6.1 2.3 10.9 6.8 13.6 12.8 2.5 5.7 2.8 12 .6 17.9zm-74.7-3l21.2 8 8-21.2-21.2-8-8 21.2zm69.4-49.7l43.2 16.4 8-21.2-43.1-16.4-8.1 21.2z"/><path class="st0" d="M345.2 249.4c-1.5 0-3-.3-4.4-.8-6.4-2.4-9.6-9.6-7.2-15.9 1.2-3.1 3.5-5.6 6.5-6.9s6.4-1.5 9.5-.3c6.4 2.4 9.6 9.6 7.2 15.9-1.2 3.1-3.5 5.6-6.5 6.9-1.7.7-3.4 1.1-5.1 1.1zm-.1-23.7c-1.6 0-3.2.3-4.6 1-2.8 1.2-4.9 3.5-6 6.3-2.2 5.9.7 12.4 6.6 14.6 2.9 1.1 5.9 1 8.7-.3 2.8-1.2 4.9-3.5 6-6.3 2.2-5.9-.7-12.4-6.6-14.6-1.3-.5-2.7-.7-4.1-.7zM435.4 233.8l-111.6-42.3 33.7-89.4 23.1 8.8-13.4 35.5c11.8-18.6 35.4-27.1 56.8-19.2l8.4-22.2 45.1 17.1-8.8 23.1-35.5-13.4c18.7 11.9 27.2 35.7 19.2 57.2l-.2.5-23.1-8.8.2-.5c2.2-5.7 2.1-11.9-.4-17.5-2.5-5.7-7.1-10-13-12.2-5.7-2.2-11.9-2.1-17.5.4s-9.8 7-12.1 12.6l22.2 8.3-8.4 22.2 44.1 16.7-8.8 23.1zM325.1 191l109.8 41.6 8-21.2-44.1-16.7 8.4-22.2-21.4-8-8.4 22.2-23-8.8 8.5-22.5h-.1l16.5-43.7-21.2-8-33 87.3zm105.3-10.9l21.2 8c8.7-24-3.6-50.8-27.5-59.8-24-9.1-50.8 2.9-60.2 26.6l21.4 8.1c2.4-5.9 6.8-10.5 12.6-13.1 5.8-2.6 12.4-2.8 18.3-.4 6.1 2.3 10.9 6.8 13.6 12.8 2.5 5.7 2.8 12 .6 17.8zm-74.7-2.9l21.1 8.1 8.1-21.4-21.1-8-8.1 21.3zm69.3-49.6l43.2 16.4 8-21.2-43.2-16.5-8 21.3z"/><path class="st0" d="M395.4 116.7c-1.5 0-2.9-.3-4.4-.8-3.1-1.2-5.6-3.5-6.9-6.5-1.4-3-1.5-6.4-.3-9.5 1.2-3.1 3.5-5.6 6.5-6.9 3-1.4 6.4-1.5 9.5-.3 3.1 1.2 5.6 3.5 6.9 6.5 1.4 3 1.5 6.4.3 9.5-1.9 5-6.6 8-11.6 8zm0-23.7c-1.6 0-3.2.3-4.6 1-2.8 1.2-4.9 3.5-6 6.3-1.1 2.8-1 5.9.3 8.7 1.2 2.8 3.5 4.9 6.3 6 5.9 2.2 12.4-.7 14.6-6.6 1.1-2.8 1-5.9-.3-8.7s-3.5-4.9-6.3-6c-1.3-.4-2.6-.7-4-.7zM485.5 101.2L373.9 59l.2-.5 33.7-89 23.1 8.8-13.4 35.5c11.8-18.6 35.4-27.1 56.8-19.2l8.4-22.2 45.1 17.1-8.8 23.1L483.5-.9c18.7 11.9 27.2 35.7 19 57.3l-.2.5-23.1-8.8.2-.5c2.2-5.7 2.1-11.9-.4-17.5-2.5-5.7-7.1-10-13-12.2-5.7-2.2-11.9-2.1-17.5.4-5.5 2.5-9.8 6.9-12.1 12.5l22.2 8.4-8.4 22.2 44.1 16.7-8.8 23.1zM375.2 58.4L485 100l8-21.2L448.9 62l8.4-22.2-21.2-8-8.4 22.2-23.1-8.8 25.1-66.3-21.2-8-33.3 87.5zm105.3-10.9l21.2 8c4.2-11.5 3.8-24.1-1.3-35.3C495.3 8.8 486 .1 474.3-4.4c-24-9.1-50.9 2.9-60.2 26.7l21.3 8c2.4-5.9 6.8-10.5 12.6-13.1 5.8-2.6 12.4-2.8 18.3-.4 6.1 2.3 10.9 6.8 13.6 12.8 2.5 5.8 2.8 12.1.6 17.9zm-74.7-2.9l21.2 8 8-21.2-21.2-8-8 21.2zm69.4-49.7l43.2 16.4 8-21.2-43.2-16.4-8 21.2z"/><path class="st0" d="M445.6-16.1c-1.5 0-3-.3-4.4-.8-6.4-2.4-9.6-9.6-7.2-15.9 2.4-6.4 9.6-9.6 15.9-7.2 3.1 1.2 5.6 3.5 6.9 6.5 1.4 3 1.5 6.4.3 9.5s-3.5 5.6-6.5 6.9c-1.5.7-3.2 1-5 1zM435-32.5c-2.2 5.9.7 12.4 6.6 14.6 2.9 1.1 5.9 1 8.7-.3 2.8-1.2 4.9-3.5 6-6.3 1.1-2.8 1-5.9-.3-8.7-1.2-2.8-3.5-4.9-6.3-6-5.9-2.1-12.5.9-14.7 6.7z"/></svg>