<?xml version="1.0" encoding="utf-8"?>
<!-- Generator: Adobe Illustrator 25.0.0, SVG Export Plug-In . SVG Version: 6.00 Build 0)  -->
<svg version="1.1" id="Camada_1" xmlns="http://www.w3.org/2000/svg" xmlns:xlink="http://www.w3.org/1999/xlink" x="0px" y="0px"
	 viewBox="0 0 360 360" style="enable-background:new 0 0 360 360;" xml:space="preserve">
<style type="text/css">
	.st0{fill:#0A0A0A;}
</style>
<path class="st0" d="M-8,158l-0.3-0.3l-58.3-61.9l49.8-47l12.1,12.9l-19.8,18.7C-11,72.1,7,74.1,18.2,85.9l12.4-11.6l23.7,25.2
	l-12.9,12.1L22.9,91.8c3.4,5.6,5.2,12.1,5,18.8c-0.3,9.2-4.1,17.7-10.8,24l-0.3,0.3L4.7,121.9l0.3-0.3c3.2-3,5.1-7,5.2-11.4
	c0.2-4.4-1.5-8.7-4.5-12c-3-3.2-7-5.1-11.4-5.2c-4.4-0.1-8.5,1.4-11.7,4.3l11.7,12.4l-12.6,11.4l23.1,24.6C4.9,145.9-8,158-8,158z
	 M-65.5,95.8L-8,156.9l11.9-11l-23.1-24.7l12.4-11.7L-18,97.8l-12.4,11.7l-12.1-12.9l37-34.8l-11.1-11.8L-65.5,95.8L-65.5,95.8z
	 M5.6,121.9l11.1,11.8c6.3-6.1,10-14.3,10.2-23.1c0.3-9-2.9-17.3-9-23.9l-0.1-0.1C5.2,73.2-15.9,72.5-29.3,84.9l11.2,11.9
	c3.4-3.1,7.7-4.6,12.2-4.4s8.9,2,12,5.5c3.2,3.4,4.9,7.8,4.8,12.6C10.6,114.7,8.9,118.8,5.6,121.9L5.6,121.9z M-41.6,96.5l11.1,11.8
	l11.8-11.1l-11.1-11.8L-41.6,96.5z M18.7,86.3l22.7,24.3l11.8-11.1L30.5,75.3L18.7,86.3L18.7,86.3z"/>
<path class="st0" d="M3.1,69.9c-0.9-0.5-1.8-1.1-2.6-1.9c-3.3-3.6-3.2-9.2,0.3-12.5c3.4-3.2,9.1-3.1,12.5,0.3
	c3.3,3.6,3.2,9.2-0.3,12.5C10.3,71,6.4,71.4,3.1,69.9z M10.7,54.8c-3-1.5-6.7-1-9.2,1.3c-3.2,3.1-3.4,8.2-0.3,11.4
	c3.1,3.2,8.2,3.4,11.4,0.3c3.2-3.1,3.4-8.2,0.3-11.4C12.2,55.7,11.5,55.1,10.7,54.8z M66.2,88.4L66,88.1L7.6,26l0.3-0.3L57.4-21
	l12,12.9L49.7,10.5C63.1,2.3,81,4.2,92.3,16l12.4-11.7l23.7,25.2l-12.9,12.1L96.7,21.8c3.4,5.6,5.2,12.2,5,19
	c-0.3,9.2-4.1,17.7-10.8,24L90.7,65L78.5,52.1l0.3-0.3c3.2-3,5.1-7,5.2-11.4c0.2-4.4-1.5-8.7-4.5-12c-3-3.2-7-5.1-11.4-5.2
	c-4.3-0.2-8.4,1.4-11.6,4.2l11.7,12.4L55.8,51.6L79,76.2L66.2,88.4z M8.5,26.1l57.7,61.3l11.8-11.1L54.8,51.7L67.2,40l-11.1-12
	L43.6,39.6L31.5,26.7l12.6-11.8l24.3-23l-11-11.8L8.5,26.1z M79.7,52.2L90.8,64c6.3-6.1,10-14.3,10.2-23.1c0.3-9-3-17.5-9.1-24.1
	C79.4,3.4,58.3,2.7,44.9,15.1l11.2,11.9c3.4-3.1,7.7-4.6,12.2-4.4c4.5,0.2,8.8,2,12,5.5c3.2,3.4,4.9,7.8,4.8,12.6
	C84.8,45,82.9,49.2,79.7,52.2z M32.5,26.7l11.2,11.9l11.9-11l-11.3-12L32.5,26.7z M92.8,16.6l22.7,24.1l11.8-11.1L104.6,5.4
	C104.7,5.4,92.8,16.6,92.8,16.6z"/>
<path class="st0" d="M77.2,0.2c-0.9-0.5-1.8-1.1-2.6-1.9c-1.6-1.7-2.5-4-2.4-6.3c0-2.4,1-4.6,2.8-6.2c3.6-3.3,9.2-3.2,12.5,0.3
	c3.3,3.6,3.2,9.2-0.3,12.5C84.3,1.3,80.3,1.8,77.2,0.2z M84.7-15c-3-1.5-6.6-1-9.1,1.4c-1.6,1.5-2.5,3.5-2.6,5.7s0.7,4.3,2.1,5.8
	c1.5,1.6,3.5,2.5,5.7,2.6s4.3-0.7,5.8-2.1c1.5-1.5,2.5-3.5,2.6-5.7s-0.7-4.3-2.1-5.8C86.3-14,85.4-14.6,84.7-15z M61.7,232.1
	L3.1,169.8l50-47l12,13l-19.8,18.7c13.4-8.3,31.3-6.3,42.6,5.5l12.3-11.5l23.8,25.1l-12.9,12.1l-18.8-19.9c8.4,13.7,6.3,31.6-5.6,43
	l-0.3,0.3l-12.1-12.9l0.3-0.3c3.2-3,5.1-7,5.2-11.4c0.2-4.4-1.5-8.7-4.5-12c-3-3.2-7-5.1-11.4-5.2c-4.4-0.1-8.5,1.4-11.7,4.3
	l11.7,12.4l-12.4,11.7l23.1,24.6L61.7,232.1L61.7,232.1z M4.1,169.8l57.7,61.3l11.8-11.1l-23.1-24.6l12.4-11.7L51.7,172l-12.4,11.7
	l-12.1-12.9l37-35L53.1,124L4.1,169.8z M75.4,195.9l11.1,11.8c13.2-12.6,13.8-33.7,1.2-47.2C75,147,53.9,146.4,40.5,158.7l11.2,11.9
	c3.4-3.1,7.7-4.6,12.2-4.4c4.5,0.2,8.8,2,12,5.5c3.2,3.4,4.9,7.8,4.8,12.6C80.3,188.7,78.5,192.8,75.4,195.9L75.4,195.9z
	 M28.1,170.6l11.1,11.8L51,171.3l-11.1-11.8L28.1,170.6z M88.4,160.4l22.7,24.2l11.8-11.1l-22.8-24L88.4,160.4L88.4,160.4z"/>
<path class="st0" d="M72.8,144c-0.9-0.5-1.8-1.1-2.6-1.9c-1.6-1.7-2.5-4-2.4-6.3c0-2.4,1-4.6,2.8-6.2c1.7-1.6,4-2.5,6.3-2.4
	c2.3,0.1,4.6,1,6.2,2.8c3.3,3.6,3.2,9.2-0.3,12.5C80,145.2,76.1,145.6,72.8,144z M80.2,128.8c-1-0.5-2.1-0.9-3.2-0.8
	c-2.2-0.1-4.3,0.7-5.8,2.1s-2.5,3.5-2.6,5.7c0,2.2,0.7,4.3,2.1,5.8c3.1,3.2,8.2,3.4,11.4,0.3c3.2-3.1,3.4-8.2,0.3-11.4
	C81.9,129.9,81.2,129.2,80.2,128.8L80.2,128.8z M135.8,162.4l-58.7-62.3l0.3-0.3L127,53.2l12.1,12.9l-19.8,18.7
	c13.4-8.3,31.3-6.3,42.6,5.5l12.4-11.7l23.7,25.2l-12.9,12.1L166.4,96c3.5,5.6,5.2,12.2,5,19c-0.3,9.2-4.1,17.7-10.8,24l-0.3,0.3
	l-12-13l0.3-0.3c3.2-3,5.1-7,5.2-11.4c0.2-4.4-1.5-8.7-4.5-12c-3-3.2-7-5.1-11.4-5.2c-4.4-0.1-8.5,1.4-11.7,4.3l11.7,12.4
	l-12.4,11.7l23.1,24.6L135.8,162.4L135.8,162.4z M78.1,100.1l57.7,61.3l11.8-11.1l-23.1-24.7l12.4-11.7l-11.1-11.8l-12.4,11.6
	l-12.1-12.9l37-34.8L127,54.3L78.1,100.1L78.1,100.1z M149.3,126.2l11.1,11.8c6.3-6.1,10-14.3,10.2-23.1c0.3-9-3-17.5-9.1-24.1
	C149,77.3,127.9,76.7,114.5,89l11.1,11.8c3.4-3.1,7.7-4.6,12.2-4.4c4.5,0.2,8.9,2,12,5.5c3.2,3.4,4.9,7.8,4.8,12.6
	C154.5,119,152.6,123.1,149.3,126.2L149.3,126.2z M102.2,100.8l11.1,11.8l11.8-11.1L114,89.7L102.2,100.8z M162.5,90.7l22.7,24.2
	l11.8-11.1l-22.6-24.1L162.5,90.7L162.5,90.7z"/>
<path class="st0" d="M146.9,74.3c-0.9-0.5-1.9-1.1-2.6-1.9c-3.3-3.6-3.2-9.2,0.3-12.5c3.6-3.2,9.1-3.1,12.5,0.3
	c1.6,1.7,2.5,4,2.4,6.3c0,2.4-1,4.6-2.8,6.2c-1.7,1.6-4,2.5-6.3,2.4C149.3,75.2,148.1,74.9,146.9,74.3z M145.2,60.3
	c-3.2,3.1-3.4,8.2-0.3,11.4c1.5,1.6,3.5,2.5,5.7,2.6c2.2,0.1,4.3-0.7,5.8-2.1c1.5-1.5,2.5-3.5,2.6-5.7c0.1-2.2-0.7-4.3-2.1-5.8
	C153.6,57.6,148.5,57.4,145.2,60.3L145.2,60.3z M140.1,18.7L81.4-43.6l0.3-0.3l49.7-46.7l12.1,12.9L123.7-59c5.6-3.5,12.2-5.2,19-5
	c9.1,0.3,17.4,3.9,23.7,10.5l12.4-11.7l23.7,25.2l-12.9,12.1l-18.7-19.8c3.5,5.6,5.2,12.1,5,18.9c-0.3,9.1-4.1,17.6-10.8,23.8
	l-0.3,0.3l-12.1-12.9l0.3-0.3c3.2-3,5.1-7,5.2-11.4c0.2-4.4-1.5-8.7-4.5-12c-3-3.2-7-5.1-11.4-5.2c-4.4-0.1-8.5,1.4-11.7,4.3
	l11.7,12.4L129.9-18L153,6.8C152.9,6.6,140.1,18.7,140.1,18.7z M82.5-43.6l57.7,61.2L152,6.5l-23.1-24.8l12.4-11.7l-11.1-11.8
	L117.7-30l-12.1-12.9L118.5-55h0.1l24-22.7l-11.1-11.8L82.5-43.6L82.5-43.6z M153.8-17.6l11.1,11.8c6.3-6.1,10-14.3,10.2-23.1
	c0.3-9-3-17.5-9.1-23.9c-6.1-6.5-14.4-10.2-23.4-10.5c-8.9-0.2-17.3,2.9-23.7,8.8L130-42.7c3.4-3.1,7.7-4.6,12.2-4.4
	c4.5,0.2,8.8,2,12,5.5c3.2,3.4,4.9,7.8,4.8,12.6C158.8-24.8,156.9-20.7,153.8-17.6L153.8-17.6z M106.5-43l11.1,11.8l11.8-11.1
	l-11.1-11.8C118.3-54.2,106.5-43,106.5-43z M166.8-53.1l22.7,24.2L201.4-40l-22.7-24.2L166.8-53.1z"/>
<path class="st0" d="M151.2-69.5c-0.9-0.5-1.9-1.1-2.6-1.9c-3.3-3.6-3.2-9.2,0.3-12.5c3.6-3.3,9.2-3.2,12.5,0.3
	c3.3,3.6,3.2,9.2-0.3,12.5c-1.7,1.6-4,2.5-6.3,2.4C153.6-68.5,152.4-68.9,151.2-69.5z M149.5-83.3c-3.2,3.1-3.4,8.2-0.3,11.4
	c1.5,1.6,3.5,2.5,5.7,2.6c2.2,0.1,4.3-0.7,5.8-2.1c3.2-3.1,3.4-8.2,0.3-11.4C158-86.1,152.8-86.4,149.5-83.3z M210,92.7l-58.7-62.4
	l0.3-0.3l49.7-46.7l12.1,12.9l-19.8,18.6c13.4-8.2,31.3-6.2,42.5,5.5l12.4-11.7l23.7,25.2l-12.9,12.2l-18.7-19.7
	c8.3,13.6,6.3,31.5-5.6,42.9l-0.3,0.3l-12.1-12.9l0.3-0.3c3.2-3,5.1-7,5.2-11.4c0.2-4.4-1.5-8.7-4.5-12c-3-3.2-7-5.1-11.4-5.2
	c-4.4-0.1-8.5,1.4-11.7,4.3l11.7,12.4l-12.4,11.7l23.1,24.6L210,92.7L210,92.7z M152.2,30.5l57.7,61.3l11.8-11.1L198.5,56l12.4-11.7
	l-11.1-11.8l-12.4,11.7l-12.1-12.9l12.6-11.8h-0.1c0-0.1,0.1,0,0.1-0.1l24.3-22.8l-11.1-11.8L152.2,30.5L152.2,30.5z M223.6,56.5
	l11.1,11.8c13.2-12.7,13.7-33.8,1-47.1C223,7.7,202,7,188.5,19.3l11.3,12c3.4-3.1,7.7-4.6,12.2-4.4c4.5,0.2,8.8,2,12,5.5
	c3.2,3.4,4.9,7.8,4.8,12.6C228.6,49.3,226.8,53.5,223.6,56.5z M176.3,31.2L187.4,43l11.8-11.1l-11.1-11.8L176.3,31.2z M236.5,21.1
	l22.7,24.2L271,34.1L248.4,10C248.4,9.8,236.5,21.1,236.5,21.1z"/>
<path class="st0" d="M220.9,4.7c-0.9-0.5-1.9-1.1-2.6-1.9c-3.3-3.6-3.2-9.2,0.3-12.5c1.7-1.6,4-2.5,6.3-2.4c2.4,0,4.6,1,6.2,2.8
	c1.6,1.7,2.5,4,2.4,6.3c0,2.4-1,4.6-2.8,6.2c-1.7,1.6-4,2.5-6.3,2.4C223.2,5.4,222,5.2,220.9,4.7L220.9,4.7z M228.3-10.7
	c-1-0.5-2.1-0.9-3.2-0.8c-2.2-0.1-4.3,0.7-5.8,2.1c-3.2,3.1-3.4,8.2-0.3,11.4c1.5,1.6,3.5,2.5,5.7,2.6s4.3-0.7,5.8-2.1
	c1.6-1.5,2.5-3.5,2.6-5.7s-0.7-4.3-2.1-5.8C230.1-9.7,229.2-10.3,228.3-10.7L228.3-10.7z M134.7,309.7l-58.6-62.4l50-47l12.1,12.9
	l-19.7,18.6c5.6-3.5,12.2-5.2,19-5c9.1,0.3,17.4,3.9,23.7,10.5l12.4-11.7l23.7,25.2l-12.9,12.1l-18.8-19.9c8.4,13.7,6.3,31.6-5.6,43
	l-0.3,0.3l-12.1-12.9l0.3-0.3c3.2-3,5.1-7,5.2-11.4c0.2-4.4-1.5-8.7-4.5-12c-3-3.2-7-5.1-11.4-5.2c-4.4-0.1-8.5,1.4-11.7,4.3
	l11.7,12.4l-12.4,11.7l23.1,24.6L134.7,309.7L134.7,309.7z M77.1,247.4l57.7,61.3l11.8-11.1L123.4,273l12.4-11.7l-11.1-11.8
	l-12.4,11.7l-12.1-12.9l37-34.8L126,201.7L77.1,247.4L77.1,247.4z M148.3,273.5l11.1,11.8c13.2-12.6,13.8-33.7,1.2-47.2
	c-12.6-13.4-33.7-14.1-47.1-1.7l11.2,11.9c3.4-3.1,7.7-4.6,12.2-4.4c4.5,0.2,8.8,2,12,5.5c3.2,3.4,4.9,7.8,4.8,12.6
	C153.4,266.3,151.6,270.5,148.3,273.5z M101.2,248.2l11.1,11.8l11.8-11.1L113,237.1L101.2,248.2z M161.5,237.9l22.7,24.2L196,251
	l-22.6-24.1L161.5,237.9z"/>
<path class="st0" d="M145.8,221.7c-0.9-0.5-1.9-1.1-2.6-1.9c-3.3-3.6-3.2-9.2,0.3-12.5c1.7-1.6,4-2.5,6.3-2.4c2.3,0.1,4.6,1,6.2,2.8
	c3.3,3.6,3.2,9.2-0.3,12.5c-1.7,1.6-4,2.5-6.3,2.4C148.2,222.5,146.9,222.2,145.8,221.7z M153.3,206.4c-1-0.5-2.1-0.9-3.2-0.8
	c-2.2-0.1-4.3,0.7-5.8,2.1c-3.2,3.1-3.4,8.2-0.3,11.4c1.5,1.6,3.5,2.5,5.7,2.6s4.3-0.7,5.8-2.1c3.2-3.1,3.4-8.2,0.3-11.4
	C155,207.4,154.1,206.8,153.3,206.4z M208.9,240l-58.6-62.4l49.8-47l12.1,12.9l-19.8,18.7c13.4-8.3,31.3-6.3,42.6,5.5l12.4-11.7
	l23.7,25.2l-12.9,12.1l-18.7-19.8c8.3,13.6,6.3,31.5-5.6,42.9l-0.3,0.3l-12.1-12.9l0.3-0.3c3.2-3,5.1-7,5.2-11.4
	c0.2-4.4-1.5-8.7-4.5-12c-3-3.2-7-5.1-11.4-5.2c-4.4-0.2-8.5,1.5-11.8,4.4l11.7,12.3l-12.3,11.6l23.1,24.6L208.9,240L208.9,240z
	 M151.3,177.8l57.7,61.3l11.8-11.1l-23.1-24.6l12.4-11.7l-11.3-12l-12.4,11.7l-12-12.9l12.6-11.8h-0.1l24.3-23L200,132L151.3,177.8
	L151.3,177.8z M222.5,203.8l11.1,11.8c13.2-12.7,13.7-33.8,1-47.1c-12.6-13.4-33.7-14.1-47.1-1.8l11.3,12c3.4-3.1,7.7-4.6,12.2-4.4
	c4.5,0.2,8.9,2,12,5.5c3.2,3.4,4.9,7.8,4.8,12.6C227.6,196.7,225.8,200.8,222.5,203.8L222.5,203.8z M175.3,178.5l11,11.9l12-11.3
	l-11.1-11.8L175.3,178.5L175.3,178.5z M235.5,168.3l22.7,24.2l11.8-11.1l-22.6-24.3L235.5,168.3z"/>
<path class="st0" d="M219.9,152c-0.9-0.5-1.8-1.1-2.6-1.9c-1.6-1.7-2.5-4-2.4-6.3c0-2.4,1-4.6,2.8-6.2c1.7-1.6,4-2.5,6.3-2.4
	c2.4,0,4.6,1,6.2,2.8s2.5,4,2.4,6.3c0,2.4-1,4.6-2.8,6.2C227.1,153.1,223.1,153.5,219.9,152z M227.3,136.7c-1-0.5-2.1-0.9-3.2-0.8
	c-2.2-0.1-4.3,0.7-5.8,2.1s-2.5,3.5-2.6,5.7c-0.1,2.2,0.7,4.3,2.1,5.8c3.1,3.2,8.2,3.4,11.4,0.3c1.6-1.5,2.5-3.5,2.6-5.7
	c0.1-2.2-0.7-4.3-2.1-5.8C229,137.7,228.3,137.1,227.3,136.7z M282.8,170.3L224.2,108l0.3-0.3L274.1,61l12.1,12.9l-19.8,18.7
	c13.4-8.3,31.3-6.3,42.6,5.5l12.4-11.7l23.7,25.2l-12.9,12.1l-18.6-19.8c8.3,13.6,6.3,31.5-5.7,42.9l-0.3,0.3l-12.1-12.9l0.3-0.3
	c3.2-3,5.1-7,5.2-11.4c0.2-4.4-1.5-8.7-4.5-12c-3-3.2-7-5.1-11.4-5.2c-4.4-0.1-8.5,1.4-11.7,4.3l11.7,12.4l-12.4,11.7l23.1,24.6
	L282.8,170.3L282.8,170.3z M225.2,108.1l57.7,61.3l11.8-11.1l-23.1-24.7l12.4-11.7l-11.1-11.8l-12.4,11.7l-12.1-13.1l37-34.8
	l-11.1-11.8L225.2,108.1L225.2,108.1z M296.5,134.1l11.1,11.8c6.3-6.1,10-14.3,10.2-23.1c0.3-9-3-17.5-9.1-24.1
	c-12.6-13.4-33.7-14.1-47.1-1.7l11.2,11.9c3.4-3.1,7.7-4.6,12.2-4.4c4.5,0.2,8.9,2,12,5.5c3.2,3.4,4.9,7.8,4.8,12.6
	C301.5,127,299.7,131.1,296.5,134.1L296.5,134.1z M249.3,108.8l11.1,11.8l11.8-11.1l-11.1-11.8L249.3,108.8z M309.6,98.6l22.7,24.2
	l11.8-11.1l-22.7-24.2L309.6,98.6L309.6,98.6z"/>
<path class="st0" d="M293.9,82.2c-0.9-0.5-1.9-1.1-2.6-1.9c-3.3-3.6-3.2-9.2,0.3-12.5c3.6-3.3,9.2-3.2,12.5,0.3
	c1.6,1.7,2.5,4,2.4,6.3c0,2.4-1,4.6-2.8,6.2s-4,2.5-6.3,2.4C296.3,83.1,295.1,82.7,293.9,82.2L293.9,82.2z M292.3,68.3
	c-3.2,3.1-3.4,8.2-0.3,11.4c1.5,1.6,3.5,2.5,5.7,2.6c2.2,0.1,4.3-0.7,5.8-2.1c1.5-1.5,2.5-3.5,2.6-5.7c0.1-2.2-0.7-4.3-2.1-5.8
	C300.7,65.4,295.6,65.2,292.3,68.3L292.3,68.3z"/>
</svg>
