<?xml version="1.0" encoding="utf-8"?>
<!-- Generator: Adobe Illustrator 25.0.0, SVG Export Plug-In . SVG Version: 6.00 Build 0)  -->
<svg version="1.1" id="Camada_1" xmlns="http://www.w3.org/2000/svg" xmlns:xlink="http://www.w3.org/1999/xlink" x="0px" y="0px"
	 viewBox="0 0 360 360" style="enable-background:new 0 0 360 360;" xml:space="preserve">
<style type="text/css">
	.st0{fill:#0A0A0A;}
</style>
<path class="st0" d="M74.1,22.4l0.2-0.3L115.1-51l59,32.8L165.6-3L142.2-16c11.8,10.2,15.3,27.6,7.5,41.7l14.5,8.2l-16.6,29.7
	l-15.2-8.5l13.1-23.3c-4.2,4.9-9.8,8.5-16.2,10.2c-8.7,2.5-17.9,1.4-25.7-3l-0.3-0.2l8.5-15.2l0.3,0.2c3.8,2.1,8.1,2.7,12.3,1.5
	c4.2-1.2,7.7-3.9,9.9-7.8c2.1-3.8,2.7-8.1,1.5-12.3c-1.2-4.1-3.8-7.6-7.5-9.8l-8.2,14.6l-14.6-8.2L89.2,31
	C89.2,31,74.1,22.4,74.1,22.4z M115.4-50.1L75,22.2L89,30l16.3-29.1l14.6,8.2l7.8-14L113-13.1l8.5-15.2l43.7,24.4l7.8-14L115.4-50.1
	L115.4-50.1z M112,24.5l-7.8,14c7.6,4.1,16.4,5.2,24.8,2.8c8.5-2.4,15.5-7.9,19.8-15.6l0.1-0.1c8.9-15.8,3.3-35.9-12.4-44.8
	l-7.8,14.1c3.9,2.3,6.6,5.8,7.8,10.2c1.2,4.3,0.7,9-1.6,12.8c-2.2,4-5.9,6.9-10.4,8.2C120.3,27.1,115.9,26.7,112,24.5L112,24.5z
	 M121.8-27.4l-7.8,14l14,7.8l7.8-14L121.8-27.4z M149.4,26.3l-16,28.5l14,7.8l15.9-28.5L149.4,26.3L149.4,26.3z"/>
<path class="st0" d="M160.1,6.7c0.2-1,0.5-2,1-3c2.3-4.2,7.7-5.7,11.9-3.4c4,2.2,5.6,7.6,3.4,11.9c-2.3,4.2-7.7,5.7-11.9,3.4
	C161.2,13.8,159.6,10.2,160.1,6.7z M176.6,9.3c0.5-3.3-1-6.7-3.9-8.3c-3.9-2.2-8.7-0.8-10.9,3.1c-2.2,3.9-0.8,8.7,3.1,10.9
	c3.9,2.2,8.7,0.8,10.9-3.1C176.2,11.1,176.5,10.2,176.6,9.3z M161.5,71.5l0.2-0.3l41-73.3L203-2l58.6,32.8L253.1,46l-23.4-13.1
	c11.8,10.2,15.3,27.6,7.5,41.7l14.6,8.2l-16.6,29.7l-15.2-8.5L233,80.5c-4.3,4.9-9.9,8.5-16.3,10.3c-8.7,2.5-17.9,1.4-25.7-3
	l-0.3-0.2l8.5-15.2l0.3,0.2c3.8,2.1,8.1,2.7,12.3,1.5c4.2-1.2,7.7-3.9,9.9-7.8c2.1-3.8,2.7-8.1,1.5-12.3c-1.1-4.1-3.7-7.5-7.4-9.7
	l-8.2,14.7L193,50.9L176.7,80L161.5,71.5z M202.9-1.2l-40.5,72.4l14,7.8l16.3-29.1l14.6,8.2l7.9-14l-14.6-8.3l8.5-15.2l14.8,8.4
	L252.8,45l7.9-13.9L202.9-1.2z M199.5,73.4l-7.8,14c7.6,4.1,16.4,5.2,24.8,2.8c8.5-2.4,15.5-8,19.9-15.7
	c8.9-15.8,3.3-35.9-12.4-44.8l-7.8,14.1c3.9,2.3,6.6,5.8,7.8,10.2c1.2,4.3,0.7,8.9-1.6,12.8c-2.2,4-5.9,6.9-10.4,8.2
	C207.8,76,203.3,75.5,199.5,73.4z M209.4,21.5l-7.8,14.1l13.9,7.9l7.9-14.1L209.4,21.5z M236.8,75.2l-15.9,28.5l14,7.8L250.9,83
	C250.9,83,236.8,75.2,236.8,75.2z"/>
<path class="st0" d="M247.6,55.6c0.2-1,0.5-2,1-3c1.2-2,3-3.5,5.3-4.1c2.2-0.7,4.6-0.4,6.7,0.8c4.2,2.3,5.7,7.7,3.4,11.9
	c-2.3,4.2-7.7,5.7-11.9,3.4C248.7,62.7,247.1,59.1,247.6,55.6z M264.1,58.1c0.5-3.2-1-6.5-4-8.2c-1.8-1.1-4-1.3-6.1-0.7
	c-2.1,0.5-3.8,1.9-4.8,3.8c-1.1,1.9-1.3,4-0.7,6.1c0.5,2.1,1.9,3.8,3.8,4.8c1.8,1.1,4,1.3,6.1,0.7c2.1-0.5,3.8-1.9,4.8-3.8
	C263.7,60,264,59,264.1,58.1z M25.1,109.9l41.2-73.6l59,33l-8.5,15.2L93.2,71.5c11.8,10.2,15.3,27.6,7.5,41.7l14.5,8.1l-16.5,29.8
	l-15.2-8.5L96.7,119c-10.3,11.9-27.9,15.4-42,7.5l-0.3-0.2l8.5-15.2l0.3,0.2c3.8,2.1,8.1,2.7,12.3,1.5c4.2-1.2,7.7-3.9,9.9-7.8
	c2.1-3.8,2.7-8.1,1.5-12.3c-1.2-4.1-3.8-7.6-7.5-9.8l-8.2,14.6l-14.6-8.2l-16.3,29.1L25.1,109.9L25.1,109.9z M66.5,37.3L26,109.7
	l14,7.8l16.3-29.1l14.6,8.2l7.8-14l-14.6-8.2l8.5-15.2l43.7,24.4l7.8-14L66.5,37.3z M63.1,112l-7.8,14c15.8,8.6,35.8,2.9,44.7-12.9
	c8.9-15.8,3.3-35.9-12.4-44.8l-7.8,14.1c3.9,2.3,6.6,5.8,7.8,10.2c1.2,4.3,0.7,8.9-1.6,12.8c-2.2,4-5.9,6.9-10.4,8.2
	C71.4,114.6,67,114.1,63.1,112L63.1,112z M72.9,60.1l-7.8,14l14,7.8l7.8-14L72.9,60.1z M100.4,113.8l-15.9,28.5l14,7.8l15.8-28.6
	L100.4,113.8L100.4,113.8z"/>
<path class="st0" d="M111.1,94.2c0.2-1,0.5-2,1-3c1.2-2,3-3.5,5.3-4.1c2.2-0.7,4.6-0.4,6.7,0.8c2,1.2,3.5,3,4.1,5.3
	c0.6,2.2,0.4,4.6-0.8,6.7c-2.3,4.2-7.7,5.7-11.9,3.4C112.2,101.3,110.6,97.7,111.1,94.2z M127.7,96.7c0.2-1.1,0.1-2.3-0.2-3.3
	c-0.5-2.1-1.9-3.8-3.8-4.8s-4-1.3-6.1-0.7c-2.1,0.6-3.8,1.9-4.8,3.8c-2.2,3.9-0.8,8.7,3.1,10.9c3.9,2.2,8.7,0.8,10.9-3.1
	C127.2,98.6,127.5,97.7,127.7,96.7L127.7,96.7z M112.6,158.9l41.1-73.7l0.3,0.2l58.7,32.8l-8.5,15.2l-23.4-13.1
	c11.8,10.2,15.3,27.6,7.5,41.7l14.6,8.2L186.3,200l-15.2-8.5l13.1-23.4c-4.2,4.9-9.9,8.5-16.3,10.3c-8.7,2.5-17.9,1.4-25.7-3
	l-0.3-0.2l8.5-15.2l0.3,0.2c3.8,2.1,8.1,2.7,12.3,1.5c4.2-1.2,7.7-3.9,9.9-7.8c2.1-3.8,2.7-8.1,1.5-12.3c-1.2-4.1-3.8-7.6-7.5-9.8
	l-8.2,14.6l-14.6-8.2l-16.3,29.1L112.6,158.9L112.6,158.9z M154,86.2l-40.5,72.4l14,7.8l16.3-29.1l14.6,8.2l7.8-14l-14.6-8.2
	l8.5-15.2l43.7,24.4l7.8-14L154,86.2L154,86.2z M150.6,160.9l-7.8,14c7.6,4.1,16.4,5.2,24.8,2.8c8.5-2.4,15.5-8,19.9-15.7
	c8.9-15.8,3.3-35.9-12.4-44.8l-7.8,14c3.9,2.3,6.6,5.8,7.8,10.2c1.2,4.3,0.7,9-1.6,12.8c-2.2,4-5.9,6.9-10.4,8.2
	C158.9,163.5,154.5,163,150.6,160.9L150.6,160.9z M160.4,109l-7.8,14l14,7.8l7.8-14L160.4,109z M187.9,162.7L172,191.1l14,7.8
	l15.9-28.4L187.9,162.7L187.9,162.7z"/>
<path class="st0" d="M198.7,143.2c0.2-1,0.5-2.1,1-3c2.3-4.2,7.7-5.7,11.9-3.4c4.1,2.4,5.6,7.7,3.4,11.9c-1.2,2-3,3.5-5.3,4.1
	c-2.2,0.7-4.6,0.4-6.7-0.8c-2-1.2-3.5-3-4.1-5.3C198.6,145.6,198.5,144.4,198.7,143.2z M211.3,137.4c-3.9-2.2-8.7-0.8-10.9,3.1
	c-1.1,1.9-1.3,4-0.7,6.1c0.5,2.1,1.9,3.8,3.8,4.8s4,1.3,6.1,0.7c2.1-0.6,3.8-1.9,4.8-3.8C216.4,144.5,215,139.6,211.3,137.4
	L211.3,137.4z M249,120.2l41.1-73.6l0.3,0.2l58.7,32.8l-8.5,15.2l-23.4-13.1c4.9,4.2,8.5,9.9,10.3,16.3c2.4,8.6,1.5,17.6-2.8,25.4
	l14.6,8.2l-16.6,29.7l-15.2-8.5l13.1-23.4c-4.2,4.9-9.8,8.5-16.2,10.3c-8.6,2.4-17.8,1.4-25.6-3l-0.3-0.2l8.5-15.2l0.3,0.2
	c3.8,2.1,8.1,2.7,12.3,1.5c4.2-1.2,7.7-3.9,9.9-7.8c2.1-3.8,2.7-8.1,1.5-12.3c-1.2-4.1-3.8-7.6-7.5-9.8l-8.2,14.6l-14.6-8.2
	l-16.4,29.1C264.1,128.8,249,120.2,249,120.2z M290.3,47.6L249.9,120l14,7.8l16.4-29.1l14.6,8.2l7.8-14l-14.6-8.2l8.5-15.2l15.2,8.5
	l0,0.1l28.4,15.9l7.8-14L290.3,47.6L290.3,47.6z M287.1,122.3l-7.8,14c7.6,4.1,16.4,5.1,24.8,2.8c8.5-2.4,15.5-8,19.8-15.6
	c4.3-7.7,5.3-16.6,3-25.1c-2.5-8.4-7.9-15.4-15.4-19.7l-7.8,13.9c3.9,2.3,6.6,5.8,7.8,10.2c1.2,4.3,0.7,8.9-1.6,12.8
	c-2.2,4-5.9,6.9-10.4,8.2C295.4,124.9,291,124.4,287.1,122.3L287.1,122.3z M297,70.4l-7.8,14l14,7.8l7.8-14
	C310.9,78.2,297,70.4,297,70.4z M324.3,124.1l-15.9,28.5l14,7.8l15.9-28.5L324.3,124.1z"/>
<path class="st0" d="M335.1,104.5c0.2-1,0.5-2.1,1-3c2.3-4.2,7.7-5.7,11.9-3.4c4.2,2.3,5.7,7.7,3.4,11.9c-2.3,4.2-7.7,5.7-11.9,3.4
	c-2-1.2-3.5-3-4.1-5.3C334.9,107,334.9,105.8,335.1,104.5z M347.6,98.8c-3.9-2.2-8.7-0.8-10.9,3.1c-1.1,1.8-1.3,4-0.7,6.1
	c0.5,2.1,1.9,3.8,3.8,4.8c3.9,2.2,8.7,0.8,10.9-3.1C352.9,105.9,351.5,101,347.6,98.8z M200.1,207.9l41.2-73.7l0.3,0.2l58.7,32.8
	l-8.5,15.2l-23.4-13.1c11.7,10.2,15.1,27.5,7.5,41.6l14.6,8.2l-16.6,29.7l-15.2-8.5l13.1-23.4c-10.3,11.8-27.8,15.3-42,7.5l-0.3-0.2
	l8.5-15.2l0.3,0.2c3.8,2.1,8.1,2.7,12.3,1.5c4.2-1.2,7.7-3.9,9.9-7.8c2.1-3.8,2.7-8.1,1.5-12.3c-1.2-4.1-3.8-7.6-7.5-9.8l-8.2,14.6
	l-14.6-8.2l-16.3,29.1L200.1,207.9L200.1,207.9z M241.5,135.2L201,207.6l14,7.8l16.3-29.1l14.6,8.2l7.8-14l-14.6-8.2l8.5-15.2
	l14.8,8.3l0-0.1c0.1,0,0.1,0.1,0.1,0.1l28.7,16.1l7.8-14L241.5,135.2L241.5,135.2z M238.1,209.9l-7.8,14c15.9,8.6,35.9,2.8,44.6-13
	c8.9-15.8,3.3-35.8-12.3-44.8l-7.9,14.1c3.9,2.3,6.6,5.8,7.8,10.2c1.2,4.3,0.7,8.9-1.6,12.8c-2.2,4-5.9,6.9-10.4,8.2
	C246.4,212.6,242,212,238.1,209.9z M247.9,158l-7.8,14l14,7.8l7.8-14L247.9,158z M275.4,211.6l-15.9,28.5l14,7.8l16-28.5
	C289.4,219.4,275.4,211.6,275.4,211.6z"/>
<path class="st0" d="M286.2,192c0.2-1,0.5-2.1,1-3c2.3-4.2,7.7-5.7,11.9-3.4c2,1.2,3.5,3,4.1,5.3c0.7,2.2,0.4,4.6-0.8,6.7
	c-1.2,2-3,3.5-5.3,4.1c-2.2,0.7-4.6,0.4-6.7-0.8c-2-1.2-3.5-3-4.1-5.3C286.1,194.5,286,193.2,286.2,192L286.2,192z M302.8,194.4
	c0.2-1.1,0.1-2.3-0.2-3.3c-0.5-2.1-1.9-3.8-3.8-4.8c-3.9-2.2-8.7-0.8-10.9,3.1c-1.1,1.9-1.3,4-0.7,6.1c0.5,2.1,1.9,3.8,3.8,4.8
	c1.8,1.1,4,1.3,6.1,0.7c2.1-0.5,3.8-1.9,4.8-3.8C302.3,196.4,302.6,195.4,302.8,194.4L302.8,194.4z M-26.2,201.6L15,128l59,33
	l-8.5,15.2l-23.3-13c4.9,4.2,8.5,9.9,10.3,16.3c2.4,8.6,1.5,17.6-2.8,25.4l14.6,8.2l-16.6,29.7l-15.2-8.5l13.1-23.5
	c-10.3,11.9-27.9,15.4-42,7.5L3,217.9l8.5-15.2l0.3,0.2c3.8,2.1,8.1,2.7,12.3,1.5c4.2-1.2,7.7-3.9,9.9-7.8c2.1-3.8,2.7-8.1,1.5-12.3
	c-1.2-4.1-3.8-7.6-7.5-9.8l-8.2,14.6l-14.6-8.2L-11,210.2L-26.2,201.6L-26.2,201.6z M15.2,129l-40.5,72.4l14,7.8L5,180.1l14.6,8.2
	l7.8-14l-14.6-8.2l8.5-15.2l43.7,24.4l7.8-14L15.2,129L15.2,129z M11.9,203.7l-7.8,14c15.8,8.6,35.8,2.9,44.7-12.9
	c8.9-15.8,3.3-35.9-12.4-44.8L28.6,174c3.9,2.3,6.6,5.8,7.8,10.2c1.2,4.3,0.7,8.9-1.6,12.8c-2.2,4-5.9,6.9-10.4,8.2
	C20.2,206.3,15.7,205.8,11.9,203.7z M21.7,151.8l-7.8,14l14,7.8l7.8-14L21.7,151.8z M49.2,205.5l-15.9,28.5l14,7.8l15.9-28.4
	L49.2,205.5z"/>
<path class="st0" d="M59.8,186c0.2-1,0.5-2.1,1-3c2.3-4.2,7.7-5.7,11.9-3.4c2,1.2,3.5,3,4.1,5.3c0.6,2.2,0.4,4.6-0.8,6.7
	c-2.3,4.2-7.7,5.7-11.9,3.4c-2-1.2-3.5-3-4.1-5.3C59.8,188.4,59.7,187.2,59.8,186z M76.4,188.4c0.2-1.1,0.1-2.3-0.2-3.3
	c-0.5-2.1-1.9-3.8-3.8-4.8c-3.9-2.2-8.7-0.8-10.9,3.1c-1.1,1.9-1.3,4-0.7,6.1c0.5,2.1,1.9,3.8,3.8,4.8c3.9,2.2,8.7,0.8,10.9-3.1
	C76,190.3,76.3,189.3,76.4,188.4z M61.4,250.6l41.2-73.6l59,32.8l-8.5,15.2L129.5,212c11.8,10.2,15.3,27.6,7.5,41.7l14.6,8.2
	l-16.6,29.7l-15.2-8.5l13.1-23.4c-10.3,11.8-27.8,15.3-42,7.5l-0.3-0.2l8.5-15.2l0.3,0.2c3.8,2.1,8.1,2.7,12.3,1.5
	c4.2-1.2,7.7-3.9,9.9-7.8c2.1-3.8,2.7-8.1,1.5-12.3c-1.2-4.2-3.9-7.6-7.5-9.8l-8.1,14.7l-14.6-8.2l-16.3,29.1L61.4,250.6L61.4,250.6
	z M102.7,178l-40.5,72.4l14,7.8l16.3-29.1l14.6,8.2l7.8-14.1l-14.6-8.2l8.5-15.2l14.8,8.3l0-0.1l28.8,16.1l7.8-14L102.7,178
	L102.7,178z M99.4,252.7l-7.8,14c15.9,8.6,35.9,2.8,44.6-13c8.9-15.8,3.3-35.8-12.3-44.8l-7.9,14.1c3.9,2.3,6.6,5.8,7.8,10.2
	c1.2,4.3,0.7,9-1.6,12.8c-2.2,4-5.9,6.9-10.4,8.2C107.7,255.3,103.2,254.8,99.4,252.7L99.4,252.7z M109.2,200.8l-7.9,13.9l14.1,7.9
	l7.8-13.9L109.2,200.8L109.2,200.8z M136.7,254.4l-15.9,28.5l14,7.8l16-28.5C150.7,262.2,136.7,254.4,136.7,254.4z"/>
<path class="st0" d="M147.4,234.8c0.2-1,0.5-2,1-3c1.2-2,3-3.5,5.3-4.1c2.2-0.7,4.6-0.4,6.7,0.8c2,1.2,3.5,3,4.1,5.3
	c0.7,2.2,0.4,4.6-0.8,6.7c-1.2,2-3,3.5-5.3,4.1c-2.2,0.7-4.6,0.4-6.7-0.8C148.5,241.9,146.8,238.3,147.4,234.8z M163.9,237.3
	c0.2-1.1,0.1-2.3-0.2-3.3c-0.5-2.1-1.9-3.8-3.8-4.8s-4-1.3-6.1-0.7c-2.1,0.5-3.8,1.9-4.8,3.8c-2.2,3.9-0.8,8.7,3.1,10.9
	c1.8,1.1,4,1.3,6.1,0.7c2.1-0.6,3.8-1.9,4.8-3.8C163.4,239.2,163.8,238.3,163.9,237.3z M148.8,299.4l41.1-73.6l0.3,0.2l58.7,32.8
	l-8.5,15.2L217,261c11.8,10.2,15.3,27.6,7.5,41.7l14.6,8.2l-16.6,29.7l-15.2-8.5l13.1-23.4c-10.3,11.8-27.8,15.3-42,7.3l-0.3-0.2
	l8.5-15.2l0.3,0.2c3.8,2.1,8.1,2.7,12.3,1.5c4.2-1.2,7.7-3.9,9.9-7.8c2.1-3.8,2.7-8.1,1.5-12.3c-1.2-4.1-3.8-7.6-7.5-9.8l-8.2,14.6
	l-14.6-8.2L164.1,308L148.8,299.4L148.8,299.4z M190.2,226.8l-40.5,72.4l14,7.8l16.3-29.1l14.6,8.2l7.8-14l-14.6-8.2l8.5-15.2
	l43.7,24.4l7.8-14L190.2,226.8L190.2,226.8z M186.9,301.5l-7.8,14c7.6,4.1,16.4,5.2,24.8,2.8c8.5-2.4,15.5-8,19.9-15.7
	c8.9-15.8,3.3-35.9-12.4-44.8l-7.8,14.1c3.9,2.3,6.6,5.8,7.8,10.2c1.2,4.3,0.7,9-1.6,12.8c-2.2,4-5.9,6.9-10.4,8.2
	C195.1,304.1,190.7,303.6,186.9,301.5L186.9,301.5z M196.7,249.6l-7.8,14l14,7.8l7.8-14L196.7,249.6z M224.2,303.3l-15.9,28.5
	l14,7.8l15.9-28.5L224.2,303.3L224.2,303.3z"/>
<path class="st0" d="M235,283.7c0.2-1,0.5-2.1,1-3c2.3-4.2,7.7-5.7,11.9-3.4c4.2,2.3,5.7,7.7,3.4,11.9c-1.2,2-3,3.5-5.3,4.1
	c-2.2,0.7-4.6,0.4-6.7-0.8c-2-1.2-3.5-3-4.1-5.3C234.8,286.2,234.8,285,235,283.7L235,283.7z M247.5,278c-3.9-2.2-8.7-0.8-10.9,3.1
	c-1.1,1.9-1.3,4-0.7,6.1c0.5,2.1,1.9,3.8,3.8,4.8s4,1.3,6.1,0.7c2.1-0.5,3.8-1.9,4.8-3.8C252.8,285.1,251.3,280.1,247.5,278
	L247.5,278z"/>
</svg>
