<?xml version="1.0" encoding="utf-8"?>
<!-- Generator: Adobe Illustrator 25.0.0, SVG Export Plug-In . SVG Version: 6.00 Build 0)  -->
<svg version="1.1" id="Camada_1" xmlns="http://www.w3.org/2000/svg" xmlns:xlink="http://www.w3.org/1999/xlink" x="0px" y="0px"
	 viewBox="0 0 360 360" style="enable-background:new 0 0 360 360;" xml:space="preserve">
<style type="text/css">
	.st0{fill:#0A0A0A;}
</style>
<path class="st0" d="M43.6,71.2l0.4-0.3l97-68.2l55.1,78.1l-20.2,14.2l-21.9-31c8.8,20.2,2.6,44.5-16,57.8l13.4,19.4L112,168.8
	l-14.2-20.2l31-21.7c-8.4,3.6-17.7,4.8-27,3.1c-12.7-2.2-23.6-9.1-31-19.5l-0.3-0.4l20.2-14.2l0.3,0.4c3.5,5,8.7,8.4,14.7,9.5
	c6.1,1.1,12.3-0.3,17.4-3.9c5-3.5,8.4-8.7,9.5-14.7c1-6-0.2-12-3.6-17l-19.4,13.7L96.3,64.3L57.7,91.4
	C57.7,91.4,43.6,71.2,43.6,71.2z M140.8,4.1L45,71.4L57.9,90l38.6-27.1l13.7,19.4l18.5-13.1L115,49.8l20.2-14.2l40.8,58l18.5-13.1
	L140.8,4.1L140.8,4.1z M90.7,97.1l-18.5,13.1c7.2,9.9,17.8,16.7,29.9,18.7c12.3,2.2,24.6-0.6,34.8-7.7l0.2-0.1
	c21-14.8,26.2-43.8,11.7-64.8l-18.6,13.1c3.5,5.3,4.9,11.5,3.8,17.8c-1.1,6.3-4.6,11.8-9.9,15.4c-5.3,3.8-11.7,5.2-18.2,4.1
	C99.7,105.5,94.3,102.2,90.7,97.1L90.7,97.1z M135.1,36.9L116.6,50l13.1,18.5l18.5-13.1L135.1,36.9z M137.3,122.3l-38,26.6
	l13.1,18.5l37.8-26.5L137.3,122.3L137.3,122.3z"/>
<path class="st0" d="M163,103.9c0.8-1.2,1.9-2.2,3.1-3.2c5.6-3.9,13.3-2.6,17.2,3c3.8,5.3,2.4,13.1-3,17.2c-5.6,3.9-13.3,2.6-17.2-3
	C160,113.7,160.2,108.1,163,103.9z M182.4,117.4c2.6-3.9,2.8-9.1,0.1-13c-3.6-5.1-10.7-6.4-15.8-2.7c-5.1,3.6-6.4,10.7-2.7,15.8
	s10.7,6.4,15.8,2.7C180.8,119.4,181.7,118.4,182.4,117.4z M125,187.4l0.4-0.3l97.3-68.4l0.3,0.4l54.7,77.8L257.5,211l-21.8-31.1
	c8.8,20.2,2.6,44.5-16,57.8l13.7,19.4l-39.5,27.7l-14.2-20.2l31-21.9c-8.5,3.6-17.9,4.8-27.1,3.1c-12.7-2.2-23.6-9.1-31-19.5
	l-0.3-0.4l20.2-14.2l0.3,0.4c3.5,5,8.7,8.4,14.7,9.5c6.1,1.1,12.3-0.3,17.4-3.9c5-3.5,8.4-8.7,9.5-14.7c1.1-5.9-0.2-11.8-3.5-16.9
	l-19.5,13.7l-13.7-19.4l-38.6,27.1L125,187.4z M222.4,120.1l-96.1,67.5l13.1,18.5L178,179l13.7,19.4l18.7-13.1l-13.5-19.5l20.2-14.2
	l13.7,19.8l26.9,38.2l18.5-12.9L222.4,120.1z M172.3,213.2l-18.5,13.1c7.2,9.9,17.8,16.7,29.9,18.7c12.3,2.2,24.7-0.6,35-7.8
	c21-14.8,26.2-43.8,11.7-64.8l-18.6,13.1c3.5,5.3,4.9,11.5,3.8,17.8c-1.1,6.3-4.6,11.8-9.9,15.4c-5.3,3.8-11.7,5.2-18.2,4.1
	C181.3,221.6,175.9,218.2,172.3,213.2z M216.8,153l-18.6,13.1l12.9,18.6l18.7-13.2L216.8,153z M218.8,238.3l-37.7,26.6l13.1,18.5
	l37.8-26.5C231.9,256.9,218.8,238.3,218.8,238.3z"/>
<path class="st0" d="M244.6,219.9c0.8-1.2,1.9-2.2,3.1-3.2c2.7-1.9,6-2.7,9.3-2.1c3.3,0.5,6.1,2.4,8,5.1c3.9,5.6,2.6,13.3-3,17.2
	c-5.6,3.9-13.3,2.6-17.2-3C241.7,229.7,241.8,224.1,244.6,219.9z M264.1,233.3c2.6-3.8,2.7-8.9-0.1-12.9c-1.7-2.5-4.3-4.1-7.4-4.6
	c-3-0.6-6,0.1-8.5,1.8c-2.5,1.8-4.1,4.3-4.6,7.4c-0.6,3,0.1,6,1.8,8.5c1.7,2.5,4.3,4.1,7.4,4.6c3,0.6,6-0.1,8.5-1.8
	C262.4,235.4,263.4,234.4,264.1,233.3z M-72.6,152.7l97.6-68.6l55,78.2l-20.2,14.2l-21.9-31c8.8,20.2,2.6,44.5-16,57.8l13.5,19.2
	l-39.4,27.9l-14.2-20.2l31.2-22c-20.5,8.8-45,2.5-58.2-16.3l-0.3-0.4l20.2-14.2l0.3,0.4c3.5,5,8.7,8.4,14.7,9.5
	c6.1,1.1,12.3-0.3,17.4-3.9c5-3.5,8.4-8.7,9.5-14.7c1-6-0.2-12-3.6-17l-19.4,13.7l-13.7-19.4L-58.4,173L-72.6,152.7L-72.6,152.7z
	 M24.8,85.5L-71.2,153l13.1,18.5l38.6-27.1l13.7,19.4l18.5-13.1l-13.7-19.4l20.2-14.2l40.8,58l18.5-13.1L24.8,85.5z M-25.3,178.7
	l-18.5,13.1c14.8,20.7,43.9,25.6,65,10.9c21-14.8,26.2-43.8,11.7-64.8l-18.6,13.1c3.5,5.3,4.9,11.5,3.8,17.8
	c-1.1,6.3-4.6,11.8-9.9,15.4c-5.3,3.8-11.7,5.2-18.2,4.1C-16.4,187.1-21.7,183.7-25.3,178.7L-25.3,178.7z M19,118.5L0.5,131.6
	l13.1,18.5L32,137.1L19,118.5z M21.2,203.9l-37.8,26.5l13.1,18.5l37.7-26.7L21.2,203.9L21.2,203.9z"/>
<path class="st0" d="M46.8,185.5c0.8-1.2,1.9-2.2,3.1-3.2c2.7-1.9,6-2.7,9.3-2.1c3.3,0.5,6.1,2.4,8,5.1c1.9,2.7,2.7,6,2.1,9.3
	c-0.6,3.2-2.4,6.1-5.1,8c-5.6,3.9-13.3,2.6-17.2-3C43.8,195.2,44,189.6,46.8,185.5z M66.4,198.8c0.9-1.3,1.5-2.8,1.8-4.4
	c0.6-3-0.1-6-1.8-8.5c-1.7-2.5-4.3-4.1-7.4-4.6c-3-0.5-6,0.1-8.5,1.8c-5.1,3.6-6.4,10.7-2.7,15.8c3.6,5.1,10.7,6.4,15.8,2.7
	C64.7,200.9,65.6,199.9,66.4,198.8L66.4,198.8z M9,268.8l97.6-68.8l0.3,0.4l54.7,77.8l-20.2,14.2l-21.9-31
	c8.8,20.2,2.6,44.5-16,57.8l13.7,19.4l-39.5,27.7l-14.2-20.2l31-21.9c-8.4,3.7-17.9,4.8-27.1,3.1c-12.7-2.2-23.6-9.1-31-19.5
	l-0.3-0.4l20.2-14.2l0.3,0.4c3.5,5,8.7,8.4,14.7,9.5c6.1,1.1,12.3-0.3,17.4-3.9c5-3.5,8.4-8.7,9.5-14.7c1-6-0.2-12-3.6-17
	l-19.4,13.7l-13.7-19.4l-38.6,27.1L9,268.8L9,268.8z M106.4,201.5L10.3,269l13.1,18.5L62,260.5l13.7,19.4l18.5-13.1l-13.7-19.4
	l20.2-14.2l40.8,58l18.5-13.1L106.4,201.5L106.4,201.5z M56.3,294.8l-18.5,13.1c7.2,9.9,17.8,16.7,29.9,18.7
	c12.3,2.2,24.7-0.6,35-7.8c21-14.8,26.2-43.8,11.7-64.8L95.9,267c3.5,5.3,4.9,11.5,3.8,17.8c-1.1,6.3-4.6,11.8-9.9,15.4
	c-5.3,3.8-11.7,5.2-18.2,4.1C65.2,303.2,59.9,299.8,56.3,294.8L56.3,294.8z M100.6,234.6l-18.5,13.1l13.1,18.5l18.5-13.1
	L100.6,234.6z M102.8,319.9L65,346.4L78.1,365l37.8-26.5L102.8,319.9L102.8,319.9z"/>
<path class="st0" d="M128.5,301.7c0.8-1.2,1.9-2.3,3.1-3.2c5.6-3.9,13.3-2.6,17.2,3c3.7,5.5,2.4,13.2-3,17.2c-2.7,1.9-6,2.7-9.3,2.1
	c-3.3-0.5-6.1-2.4-8-5.1c-1.9-2.7-2.7-6-2.1-9.3C126.8,304.6,127.5,303.1,128.5,301.7z M148.1,302c-3.6-5.1-10.7-6.4-15.8-2.7
	c-2.5,1.8-4.1,4.3-4.6,7.4c-0.6,3,0.1,6,1.8,8.5s4.3,4.1,7.4,4.6c3,0.5,6-0.1,8.5-1.8C150.2,314.2,151.5,307.1,148.1,302L148.1,302z
	 M206.7,303.2l97.6-68.7l0.3,0.4l54.7,77.8L339,327l-21.9-31c3.7,8.4,4.8,17.9,3.1,27.1c-2.2,12.4-8.9,23.3-19.2,30.6l13.7,19.4
	l-39.5,27.7l-14.2-20.2l31-21.9c-8.4,3.7-17.7,4.8-27,3.2c-12.5-2.2-23.5-9.2-30.8-19.6l-0.3-0.4l20.2-14.2l0.3,0.4
	c3.5,5,8.7,8.4,14.7,9.5c6.1,1.1,12.3-0.3,17.4-3.9c5-3.5,8.4-8.7,9.5-14.7c1-6-0.2-12-3.6-17l-19.4,13.7l-13.7-19.4l-38.8,27.1
	C220.7,323.3,206.7,303.2,206.7,303.2z M304,235.9l-96,67.6l13.1,18.5l38.8-27.1l13.7,19.4l18.5-13.1l-13.7-19.4l20.2-14.2
	l14.2,20.2l-0.1,0.1l26.5,37.7l18.5-13.1L304,235.9L304,235.9z M254,329.3l-18.5,13.1c7.2,9.9,17.7,16.6,29.9,18.7
	c12.3,2.2,24.7-0.6,34.9-7.8c10.2-7.2,17-17.9,19.2-30.2c2-12.2-0.6-24.4-7.5-34.6l-18.5,13c3.5,5.3,4.9,11.5,3.8,17.8
	s-4.6,11.8-9.9,15.4c-5.3,3.8-11.7,5.2-18.2,4.1C263,337.7,257.7,334.3,254,329.3L254,329.3z M298.5,269L280,282.1l13.1,18.5
	l18.5-13.1C311.5,287.6,298.5,269,298.5,269z M300.4,354.4l-37.8,26.5l13.1,18.5l37.8-26.5L300.4,354.4z"/>
<path class="st0" d="M326.2,336c0.8-1.2,1.9-2.3,3.1-3.2c5.6-3.9,13.3-2.6,17.2,3c3.9,5.6,2.6,13.3-3,17.2c-5.6,3.9-13.3,2.6-17.2-3
	c-1.9-2.7-2.7-6-2.1-9.3C324.4,339.1,325.1,337.5,326.2,336z M345.7,336.5c-3.6-5.1-10.7-6.4-15.8-2.7c-2.5,1.7-4.1,4.3-4.6,7.4
	c-0.6,3,0.1,6,1.8,8.5c3.6,5.1,10.7,6.4,15.8,2.7C348,348.7,349.2,341.5,345.7,336.5z M90.5,385l97.7-68.7l0.3,0.4l54.7,77.8
	L223,408.8l-21.8-31.1c8.7,20.1,2.4,44.4-16,57.6l13.7,19.4l-39.5,27.7l-14.2-20.2l31-21.9c-20.3,8.8-44.8,2.5-58.1-16.2l-0.3-0.4
	l20.2-14.2l0.3,0.4c3.5,5,8.7,8.4,14.7,9.5c6.1,1.1,12.3-0.3,17.4-3.9c5-3.5,8.4-8.7,9.5-14.7c1-6-0.2-12-3.6-17L157,397.6
	l-13.7-19.4l-38.6,27.1L90.5,385L90.5,385z M187.9,317.7l-96.1,67.5l13.1,18.5l38.7-27.1l13.7,19.4l18.5-13.1l-13.7-19.4l20.2-14.2
	l13.9,19.7l0.1-0.1c0.1,0.1,0,0.1,0.1,0.2l26.7,38.2l18.5-13.1L187.9,317.7L187.9,317.7z M137.9,411L119.3,424
	c15,20.7,44.1,25.5,64.9,10.8c21-14.8,26.1-43.7,11.8-64.8l-18.7,13.2c3.5,5.3,4.9,11.5,3.8,17.8c-1.1,6.3-4.6,11.8-9.9,15.4
	c-5.3,3.8-11.7,5.2-18.2,4.1C146.7,419.4,141.4,416,137.9,411z M182.2,350.8l-18.5,13.1l13.1,18.5l18.5-13.1L182.2,350.8z
	 M184.3,435.9l-37.8,26.5l13.1,18.5l37.9-26.5C197.5,454.5,184.3,435.9,184.3,435.9z"/>
<path class="st0" d="M210,417.6c0.8-1.2,1.9-2.3,3.1-3.2c5.6-3.9,13.3-2.6,17.2,3c1.9,2.7,2.7,6,2.1,9.3c-0.5,3.3-2.4,6.1-5.1,8
	c-2.7,1.9-6,2.7-9.3,2.1c-3.3-0.5-6.1-2.4-8-5.1c-1.9-2.7-2.7-6-2.1-9.3C208.5,420.7,209.1,419,210,417.6L210,417.6z M229.8,430.9
	c0.9-1.3,1.5-2.8,1.8-4.4c0.6-3-0.1-6-1.8-8.5c-3.6-5.1-10.7-6.4-15.8-2.7c-2.5,1.8-4.1,4.3-4.6,7.4c-0.6,3,0.1,6,1.8,8.5
	c1.7,2.5,4.3,4.1,7.4,4.6c3,0.6,6-0.1,8.5-1.8C228,433,229,432.1,229.8,430.9L229.8,430.9z M-194.2,238.2l97.6-68.6l55,78.2
	L-61.9,262l-21.8-31c3.7,8.4,4.8,17.9,3.1,27.1c-2.2,12.4-8.9,23.3-19.2,30.6l13.7,19.4l-39.5,27.7l-14.2-20.2l31.2-22
	c-20.5,8.8-45,2.5-58.2-16.3l-0.3-0.4l20.2-14.2l0.3,0.4c3.5,5,8.7,8.4,14.7,9.5c6.1,1.1,12.3-0.3,17.4-3.9c5-3.5,8.4-8.7,9.5-14.7
	c1-6-0.2-12-3.6-17l-19.4,13.7l-13.7-19.4l-38.6,27.1L-194.2,238.2L-194.2,238.2z M-96.8,171l-96.1,67.5l13.1,18.5l38.6-27.1
	l13.7,19.4l18.5-13.1l-13.7-19.4l20.2-14.2l40.8,58l18.5-13.1L-96.8,171L-96.8,171z M-147,264.2l-18.5,13.1
	c14.8,20.7,43.9,25.6,65,10.9c21-14.8,26.2-43.8,11.7-64.8l-18.6,13.1c3.5,5.3,4.9,11.5,3.8,17.8c-1.1,6.3-4.6,11.8-9.9,15.4
	c-5.3,3.8-11.7,5.2-18.2,4.1C-137.9,272.6-143.3,269.3-147,264.2z M-102.6,204.1l-18.5,13.1l13.1,18.5l18.5-13.1L-102.6,204.1z
	 M-100.4,289.4l-37.8,26.5l13.1,18.5l37.8-26.5L-100.4,289.4z"/>
<path class="st0" d="M-74.9,271c0.8-1.2,1.9-2.3,3.1-3.2c5.6-3.9,13.3-2.6,17.2,3c1.9,2.7,2.7,6,2.1,9.3c-0.6,3.2-2.4,6.1-5.1,8
	c-5.6,3.9-13.3,2.6-17.2-3c-1.9-2.7-2.7-6-2.1-9.3C-76.5,274.1-75.8,272.4-74.9,271z M-55.2,284.3c0.9-1.3,1.5-2.8,1.8-4.4
	c0.6-3-0.1-6-1.8-8.5c-3.6-5.1-10.7-6.4-15.8-2.7c-2.5,1.8-4.1,4.3-4.6,7.4c-0.6,3,0.1,6,1.8,8.5c3.6,5.1,10.7,6.4,15.8,2.7
	C-57,286.5-56,285.4-55.2,284.3z M-112.6,354.4l97.6-68.6l55.1,78.1l-20.2,14.2l-21.9-31c8.8,20.2,2.6,44.5-16,57.8l13.7,19.4
	L-43.8,452L-58,431.7l31-21.9c-20.3,8.8-44.8,2.5-58.1-16.2l-0.3-0.4l20.2-14.2l0.3,0.4c3.5,5,8.7,8.4,14.7,9.5
	c6.1,1.1,12.3-0.3,17.4-3.9c5-3.5,8.4-8.7,9.5-14.7s-0.3-12-3.6-17.1L-46.2,367l-13.7-19.4l-38.6,27.1L-112.6,354.4L-112.6,354.4z
	 M-15.3,287.2l-96.1,67.5l13.1,18.5l38.6-27.1l13.7,19.4l18.6-13.2l-13.7-19.4l20.2-14.1L-7,338.4l0.1-0.1l26.9,38.2l18.5-13.1
	L-15.3,287.2L-15.3,287.2z M-65.4,380.4l-18.5,13.1c15,20.7,44.1,25.5,64.9,10.8c21-14.8,26.1-43.7,11.8-64.8l-18.7,13.2
	c3.5,5.3,4.9,11.5,3.8,17.8c-1.1,6.3-4.6,11.8-9.9,15.4c-5.3,3.8-11.7,5.2-18.2,4.1C-56.4,388.8-61.8,385.5-65.4,380.4L-65.4,380.4z
	 M-21,320.2l-18.5,12.9l13.2,18.7l18.5-13L-21,320.2L-21,320.2z M-18.9,405.4L-56.7,432l13.1,18.5L-5.7,424
	C-5.7,424-18.9,405.4-18.9,405.4z"/>
<path class="st0" d="M6.8,387.1c0.8-1.2,1.9-2.2,3.1-3.2c2.7-1.9,6-2.7,9.3-2.1c3.3,0.5,6.1,2.4,8,5.1c1.9,2.7,2.7,6,2.1,9.3
	c-0.5,3.3-2.4,6.1-5.1,8c-2.7,1.9-6,2.7-9.3,2.1c-3.3-0.5-6.1-2.4-8-5.1C3.8,396.8,4,391.2,6.8,387.1z M26.4,400.4
	c0.9-1.3,1.5-2.8,1.8-4.4c0.6-3-0.1-6-1.8-8.5c-1.7-2.5-4.3-4.1-7.4-4.6c-3-0.6-6,0.1-8.5,1.8c-5.1,3.6-6.4,10.7-2.7,15.8
	c1.7,2.5,4.3,4.1,7.4,4.6s6-0.1,8.5-1.8C24.6,402.4,25.6,401.5,26.4,400.4z M-31,470.3l97.6-68.7l0.3,0.4l54.7,77.8l-20.2,14.2
	l-21.9-31c8.8,20.2,2.6,44.5-16,57.8l13.7,19.4L37.7,568l-14.2-20.2L54.6,526c-20.3,8.8-44.8,2.5-58.1-16.4l-0.3-0.4l20.2-14.2
	l0.3,0.4c3.5,5,8.7,8.4,14.7,9.5c6.1,1.1,12.3-0.3,17.4-3.9c5-3.5,8.4-8.7,9.5-14.7c1-6-0.2-12-3.6-17l-19.4,13.7l-13.7-19.4
	l-38.6,27.1L-31,470.3L-31,470.3z M66.4,403.1l-96.1,67.5l13.1,18.5L22,462l13.7,19.4l18.5-13.1L40.5,449l20.2-14.2l40.8,58
	l18.5-13.1L66.4,403.1L66.4,403.1z M16.3,496.3l-18.5,13.1c7.2,9.9,17.8,16.7,29.9,18.7c12.3,2.2,24.7-0.6,35-7.8
	c21-14.8,26.2-43.8,11.7-64.8l-18.6,13.1c3.5,5.3,4.9,11.5,3.8,17.8c-1.1,6.3-4.6,11.8-9.9,15.4c-5.3,3.8-11.7,5.2-18.2,4.1
	C25.2,504.7,19.8,501.4,16.3,496.3L16.3,496.3z M60.6,436.1l-18.5,13.1l13.1,18.5l18.5-13.1L60.6,436.1z M62.8,521.5L25,548
	L38,566.5L75.8,540L62.8,521.5L62.8,521.5z"/>
<path class="st0" d="M88.5,503.1c0.8-1.2,1.9-2.3,3.1-3.2c5.6-3.9,13.3-2.6,17.2,3c3.9,5.6,2.6,13.3-3,17.2c-2.7,1.9-6,2.7-9.3,2.1
	c-3.3-0.5-6.1-2.4-8-5.1c-1.9-2.7-2.7-6-2.1-9.3C86.8,506.2,87.5,504.6,88.5,503.1L88.5,503.1z M108,503.6
	c-3.6-5.1-10.7-6.4-15.8-2.7c-2.5,1.8-4.1,4.3-4.6,7.4c-0.6,3,0.1,6,1.8,8.5s4.3,4.1,7.4,4.6c3,0.6,6-0.1,8.5-1.8
	C110.4,515.8,111.6,508.7,108,503.6L108,503.6z"/>
</svg>
